<svg t="1561298967604" class="icon" viewBox="0 0 1024 1024" version="1.1" xmlns="http://www.w3.org/2000/svg" p-id="3103" width="200" height="200"><path d="M936.054507 528.168238c0 22.122857-17.935488 40.052205-40.058344 40.052205-10.555403 0-20.081361-4.158716-27.233248-10.829649l-0.098237 0.092098L509.781984 198.600197l0-0.025583-1.023306-0.963954 0-0.007163L149.668253 556.707225l-0.026606-0.020466c-7.224542 7.132444-17.160845 11.533684-28.114314 11.533684-22.128997 0-40.065508-17.929348-40.065508-40.052205 0-11.351536 4.727675-21.587668 12.310374-28.876678L479.882 113.174596c7.28901-7.582699 17.532305-12.30935 28.876678-12.30935l0 0 0 0c0.007163 0 0.007163 0 0.020466 0 0.704035 0 1.407046 0.019443 2.104941 0.058328 0.11154 0.00614 0.230244 0.020466 0.332575 0.025583 0.606821 0.039909 1.207501 0.084934 1.801019 0.143263 0.045025 0.00614 0.076748 0.013303 0.115634 0.019443 9.807367 1.063215 18.543332 5.666046 24.921599 12.505825l0.024559-0.025583L695.700347 271.220145l0-36.824697c0-22.122857 17.936511-40.058344 40.058344-40.058344s40.059368 17.936511 40.059368 40.058344l0 116.943432L925.316955 500.82959l-0.092098 0.104377C931.888628 508.079714 936.054507 517.605671 936.054507 528.168238zM855.936795 594.932828l0 120.17094 0 53.41249 0 106.830097c0 22.122857-17.935488 40.053228-40.059368 40.053228l-80.117712 0L735.759715 594.932828 575.524291 594.932828l0 320.466756-373.885386 0c-22.122857 0-40.059368-17.929348-40.059368-40.053228L161.579537 768.516258l0-53.41249L161.579537 594.932828l347.178117-347.184257L855.936795 594.932828zM441.993065 594.932828 281.75764 594.932828l0 160.236448 160.235424 0L441.993065 594.932828z" p-id="3104" fill="#515151"></path><path d="M819.765991 885.983623c0 16.139585-11.42112 29.225625-25.511024 29.225625L411.301042 915.209248c-14.08888 0-25.51-13.085016-25.51-29.225625l0 0c0-16.138562 11.42112-29.224602 25.51-29.224602l382.953925 0C808.34487 856.759021 819.765991 869.844038 819.765991 885.983623L819.765991 885.983623z" p-id="3105" fill="#515151"></path></svg>
